<svg width="129" height="129" viewBox="0 0 129 129" fill="none" xmlns="http://www.w3.org/2000/svg">
<path d="M32.2491 0C14.4385 0 0 14.4387 0 32.2497C0 50.0606 14.4385 64.4993 32.2491 64.4993C50.0597 64.4993 64.3767 50.1834 64.4982 32.4764C64.4995 32.4008 64.4995 32.3252 64.4995 32.2497C64.4995 14.4387 50.0611 0 32.2491 0ZM44.3437 32.4764H32.2491V44.5698H24.1878V24.4136H44.3437V32.4764Z" fill="#C8193C"/>
<path d="M96.7486 0C78.938 0 64.4995 14.4387 64.4995 32.2497C64.4995 32.3252 64.4995 32.4008 64.5009 32.4764C64.6223 50.1834 79.0136 64.4993 96.7486 64.4993C114.484 64.4993 128.998 50.0606 128.998 32.2497C128.998 14.4387 114.559 0 96.7486 0ZM104.811 44.5698H96.7486V32.4764H84.6554V24.4136H104.811V44.5698Z" fill="#C8193C"/>
<path d="M32.2491 64.4993C14.4385 64.4993 0 78.9381 0 96.7503C0 114.563 14.4385 129 32.2491 129C50.0597 129 64.3781 114.683 64.4982 96.9757C64.4995 96.9001 64.4995 96.8259 64.4995 96.7503C64.4995 78.9381 50.0611 64.4993 32.2491 64.4993ZM44.3437 105.038H24.1878V84.8822H32.2491V96.9757H44.3437V105.038Z" fill="#C8193C"/>
<path d="M96.7486 64.4993C78.938 64.4993 64.4995 78.9381 64.4995 96.7503C64.4995 96.8259 64.4995 96.9001 64.5009 96.9757C64.621 114.683 79.0136 129 96.7486 129C114.484 129 128.998 114.561 128.998 96.7503C128.998 78.9394 114.559 64.4993 96.7486 64.4993ZM104.811 105.038H84.6554V96.9757H96.7486V84.8822H104.811V105.038Z" fill="#C8193C"/>
</svg>
