<?xml version="1.0" encoding="UTF-8"?>
<svg xmlns="http://www.w3.org/2000/svg" width="1096" height="190" viewBox="0 0 1096 190" fill="none">
  <path d="M47.2838 0.393799C21.1997 0.393799 0.0541992 21.5391 0.0541992 47.6229C0.0541992 73.7067 21.1997 94.852 47.2838 94.852C73.3679 94.852 94.3356 73.8865 94.5135 47.9549C94.5154 47.8442 94.5154 47.7335 94.5154 47.6229C94.5154 21.5391 73.3699 0.393799 47.2838 0.393799ZM64.9967 47.9549L47.2838 47.9549L47.2838 65.6655H35.4779L35.4779 36.1471L64.9967 36.1471V47.9549Z" fill="#C8193C"></path>
  <path d="M141.745 0.393799C115.661 0.393799 94.5154 21.5391 94.5154 47.6229C94.5154 47.7335 94.5154 47.8442 94.5174 47.9549C94.6953 73.8865 115.772 94.852 141.745 94.852C167.718 94.852 188.975 73.7067 188.975 47.6229C188.975 21.5391 167.829 0.393799 141.745 0.393799ZM153.553 65.6655H141.745V47.9549H124.034V36.1471H153.553V65.6655Z" fill="#C8193C"></path>
  <path d="M47.2838 94.852C21.1997 94.852 0.0541992 115.997 0.0541992 142.083C0.0541992 168.169 21.1997 189.312 47.2838 189.312C73.3679 189.312 94.3376 168.345 94.5135 142.413C94.5154 142.302 94.5154 142.194 94.5154 142.083C94.5154 115.997 73.3699 94.852 47.2838 94.852ZM64.9967 154.221H35.4779V124.702H47.2838V142.413H64.9967V154.221Z" fill="#C8193C"></path>
  <path d="M141.745 94.852C115.661 94.852 94.5154 115.997 94.5154 142.083C94.5154 142.194 94.5154 142.302 94.5174 142.413C94.6933 168.345 115.772 189.312 141.745 189.312C167.718 189.312 188.975 168.167 188.975 142.083C188.975 115.999 167.829 94.852 141.745 94.852ZM153.553 154.221H124.034V142.413H141.745V124.702H153.553V154.221Z" fill="#C8193C"></path>
  <path d="M318.24 71.4012C317.769 66.9984 315.786 63.5703 312.291 61.1168C308.829 58.6633 304.326 57.4366 298.78 57.4366C294.882 57.4366 291.537 58.0247 288.748 59.2011C285.958 60.3774 283.824 61.9738 282.345 63.9904C280.866 66.0069 280.11 68.3091 280.077 70.8971C280.077 73.048 280.564 74.9133 281.539 76.493C282.547 78.0726 283.908 79.417 285.622 80.5261C287.336 81.6016 289.235 82.509 291.319 83.2484C293.403 83.9878 295.503 84.6096 297.621 85.1137L307.3 87.5336C311.199 88.441 314.946 89.6678 318.542 91.2138C322.172 92.7598 325.415 94.7092 328.272 97.0618C331.163 99.4144 333.448 102.254 335.129 105.582C336.809 108.909 337.649 112.808 337.649 117.278C337.649 123.327 336.103 128.654 333.011 133.259C329.919 137.83 325.449 141.409 319.601 143.997C313.787 146.551 306.746 147.828 298.478 147.828C290.445 147.828 283.471 146.585 277.556 144.098C271.674 141.611 267.07 137.981 263.743 133.208C260.449 128.436 258.668 122.622 258.399 115.765H276.8C277.069 119.361 278.178 122.353 280.127 124.739C282.076 127.125 284.614 128.906 287.74 130.083C290.899 131.259 294.428 131.847 298.326 131.847C302.393 131.847 305.956 131.242 309.014 130.032C312.106 128.789 314.526 127.075 316.274 124.89C318.021 122.672 318.912 120.084 318.946 117.126C318.912 114.438 318.122 112.22 316.576 110.472C315.03 108.691 312.862 107.212 310.073 106.035C307.317 104.826 304.09 103.75 300.393 102.809L288.647 99.7841C280.144 97.5995 273.422 94.289 268.482 89.8526C263.575 85.3826 261.121 79.4506 261.121 72.0566C261.121 65.9733 262.768 60.6463 266.062 56.0754C269.389 51.5046 273.909 47.9588 279.623 45.4381C285.337 42.8838 291.806 41.6067 299.032 41.6067C306.359 41.6067 312.778 42.8838 318.29 45.4381C323.836 47.9588 328.188 51.4709 331.347 55.9746C334.507 60.4446 336.137 65.5868 336.238 71.4012H318.24ZM381.784 147.778C374.054 147.778 367.416 146.081 361.871 142.686C356.359 139.292 352.107 134.603 349.116 128.621C346.158 122.605 344.679 115.681 344.679 107.85C344.679 99.9858 346.192 93.0455 349.217 87.0295C352.242 80.9798 356.51 76.2745 362.022 72.9136C367.567 69.5191 374.121 67.8218 381.683 67.8218C387.968 67.8218 393.53 68.9813 398.37 71.3004C403.243 73.5858 407.125 76.8291 410.016 81.0302C412.906 85.1978 414.553 90.0711 414.956 95.6502H397.513C396.807 91.9196 395.127 88.8107 392.472 86.3237C389.85 83.803 386.338 82.5426 381.935 82.5426C378.205 82.5426 374.928 83.5509 372.105 85.5675C369.281 87.5504 367.08 90.4072 365.5 94.1378C363.954 97.8684 363.181 102.338 363.181 107.548C363.181 112.824 363.954 117.362 365.5 121.16C367.046 124.924 369.214 127.831 372.004 129.881C374.827 131.898 378.137 132.906 381.935 132.906C384.624 132.906 387.027 132.402 389.144 131.394C391.295 130.352 393.093 128.856 394.539 126.907C395.984 124.957 396.975 122.588 397.513 119.798H414.956C414.519 125.277 412.906 130.133 410.117 134.368C407.327 138.569 403.529 141.863 398.723 144.249C393.917 146.602 388.271 147.778 381.784 147.778ZM446.714 147.828C441.808 147.828 437.388 146.955 433.456 145.207C429.557 143.426 426.465 140.804 424.18 137.342C421.928 133.881 420.802 129.612 420.802 124.537C420.802 120.168 421.608 116.555 423.222 113.698C424.835 110.842 427.036 108.556 429.826 106.842C432.615 105.128 435.758 103.834 439.253 102.96C442.782 102.053 446.429 101.397 450.193 100.994C454.73 100.524 458.41 100.103 461.234 99.7337C464.057 99.3304 466.107 98.7254 467.384 97.9188C468.695 97.0786 469.35 95.7846 469.35 94.037V93.7345C469.35 89.9367 468.224 86.9958 465.973 84.9121C463.721 82.8283 460.477 81.7864 456.243 81.7864C451.773 81.7864 448.227 82.7611 445.605 84.7104C443.017 86.6598 441.27 88.962 440.362 91.6171L423.323 89.1972C424.667 84.492 426.885 80.5597 429.977 77.4004C433.069 74.2076 436.85 71.8213 441.32 70.2417C445.79 68.6284 450.731 67.8218 456.142 67.8218C459.872 67.8218 463.586 68.2587 467.283 69.1326C470.98 70.0064 474.358 71.4516 477.416 73.4682C480.475 75.4511 482.928 78.1566 484.777 81.5848C486.659 85.0129 487.6 89.2981 487.6 94.4403V146.266H470.056V135.628H469.451C468.342 137.779 466.779 139.796 464.763 141.678C462.78 143.526 460.276 145.022 457.251 146.165C454.26 147.274 450.748 147.828 446.714 147.828ZM451.453 134.418C455.117 134.418 458.293 133.696 460.982 132.251C463.67 130.772 465.737 128.822 467.182 126.403C468.661 123.983 469.401 121.344 469.401 118.488V109.363C468.829 109.833 467.855 110.27 466.477 110.674C465.132 111.077 463.62 111.43 461.939 111.732C460.259 112.035 458.595 112.304 456.948 112.539C455.302 112.774 453.873 112.976 452.663 113.144C449.941 113.513 447.504 114.118 445.353 114.959C443.202 115.799 441.505 116.975 440.262 118.488C439.018 119.966 438.396 121.882 438.396 124.235C438.396 127.596 439.623 130.133 442.076 131.847C444.53 133.561 447.656 134.418 451.453 134.418ZM518.69 100.893V146.266H500.441V68.8301H517.884V81.9881H518.791C520.572 77.6525 523.412 74.2076 527.311 71.6533C531.243 69.099 536.1 67.8218 541.881 67.8218C547.225 67.8218 551.879 68.9645 555.845 71.2499C559.845 73.5354 562.937 76.8459 565.121 81.1815C567.34 85.517 568.432 90.7769 568.398 96.961V146.266H550.149V99.7841C550.149 94.6083 548.804 90.5584 546.115 87.6344C543.46 84.7104 539.78 83.2484 535.075 83.2484C531.882 83.2484 529.042 83.9542 526.555 85.3658C524.101 86.7438 522.169 88.7435 520.757 91.365C519.379 93.9866 518.69 97.1626 518.69 100.893ZM582.247 146.266V43.0182H600.497V81.6352H601.253C602.194 79.7531 603.522 77.7533 605.236 75.6359C606.95 73.485 609.269 71.6533 612.193 70.1408C615.117 68.5948 618.847 67.8218 623.385 67.8218C629.367 67.8218 634.761 69.351 639.567 72.4095C644.407 75.4343 648.239 79.9211 651.062 85.8699C653.919 91.7852 655.347 99.0447 655.347 107.649C655.347 116.152 653.952 123.378 651.163 129.327C648.373 135.275 644.575 139.813 639.769 142.938C634.963 146.064 629.518 147.627 623.435 147.627C618.999 147.627 615.318 146.887 612.394 145.409C609.47 143.93 607.118 142.149 605.337 140.065C603.589 137.947 602.228 135.948 601.253 134.065H600.194V146.266H582.247ZM600.144 107.548C600.144 112.556 600.85 116.942 602.261 120.706C603.706 124.47 605.773 127.411 608.462 129.528C611.185 131.612 614.478 132.654 618.343 132.654C622.376 132.654 625.754 131.578 628.476 129.427C631.199 127.243 633.249 124.268 634.627 120.504C636.039 116.706 636.744 112.388 636.744 107.548C636.744 102.742 636.055 98.4734 634.677 94.7428C633.299 91.0121 631.249 88.0881 628.527 85.9708C625.805 83.8534 622.41 82.7947 618.343 82.7947C614.445 82.7947 611.134 83.8198 608.412 85.8699C605.689 87.9201 603.622 90.7937 602.211 94.4907C600.833 98.1877 600.144 102.54 600.144 107.548ZM699.129 147.778C691.567 147.778 685.013 146.114 679.468 142.787C673.922 139.46 669.62 134.805 666.562 128.822C663.537 122.84 662.024 115.849 662.024 107.85C662.024 99.8514 663.537 92.8438 666.562 86.8278C669.62 80.8118 673.922 76.1401 679.468 72.8128C685.013 69.4855 691.567 67.8218 699.129 67.8218C706.691 67.8218 713.245 69.4855 718.79 72.8128C724.336 76.1401 728.621 80.8118 731.646 86.8278C734.704 92.8438 736.233 99.8514 736.233 107.85C736.233 115.849 734.704 122.84 731.646 128.822C728.621 134.805 724.336 139.46 718.79 142.787C713.245 146.114 706.691 147.778 699.129 147.778ZM699.23 133.158C703.33 133.158 706.758 132.032 709.514 129.78C712.27 127.495 714.32 124.436 715.665 120.605C717.043 116.774 717.732 112.505 717.732 107.8C717.732 103.061 717.043 98.7759 715.665 94.9444C714.32 91.0794 712.27 88.0041 709.514 85.7187C706.758 83.4333 703.33 82.2906 699.23 82.2906C695.029 82.2906 691.533 83.4333 688.744 85.7187C685.988 88.0041 683.921 91.0794 682.543 94.9444C681.198 98.7759 680.526 103.061 680.526 107.8C680.526 112.505 681.198 116.774 682.543 120.605C683.921 124.436 685.988 127.495 688.744 129.78C691.533 132.032 695.029 133.158 699.23 133.158ZM784.88 68.8301V82.9459H740.365V68.8301H784.88ZM751.355 50.2778H769.605V122.974C769.605 125.428 769.975 127.31 770.714 128.621C771.487 129.898 772.495 130.772 773.739 131.242C774.982 131.713 776.36 131.948 777.873 131.948C779.015 131.948 780.057 131.864 780.998 131.696C781.973 131.528 782.712 131.377 783.217 131.242L786.292 145.509C785.317 145.846 783.922 146.215 782.108 146.619C780.326 147.022 778.142 147.257 775.554 147.324C770.983 147.459 766.866 146.77 763.202 145.257C759.539 143.711 756.632 141.325 754.481 138.099C752.363 134.872 751.322 130.839 751.355 125.999V50.2778ZM881.254 71.4012C880.783 66.9984 878.8 63.5703 875.305 61.1168C871.843 58.6633 867.34 57.4366 861.794 57.4366C857.896 57.4366 854.551 58.0247 851.762 59.2011C848.972 60.3774 846.838 61.9738 845.359 63.9904C843.881 66.0069 843.124 68.3091 843.091 70.8971C843.091 73.048 843.578 74.9133 844.553 76.493C845.561 78.0726 846.922 79.417 848.636 80.5261C850.35 81.6016 852.249 82.509 854.333 83.2484C856.417 83.9878 858.517 84.6096 860.635 85.1137L870.314 87.5336C874.213 88.441 877.96 89.6678 881.556 91.2138C885.186 92.7598 888.429 94.7092 891.286 97.0618C894.177 99.4144 896.462 102.254 898.143 105.582C899.823 108.909 900.663 112.808 900.663 117.278C900.663 123.327 899.117 128.654 896.025 133.259C892.933 137.83 888.463 141.409 882.615 143.997C876.801 146.551 869.76 147.828 861.492 147.828C853.459 147.828 846.485 146.585 840.57 144.098C834.688 141.611 830.084 137.981 826.757 133.208C823.463 128.436 821.682 122.622 821.413 115.765H839.814C840.083 119.361 841.192 122.353 843.141 124.739C845.09 127.125 847.628 128.906 850.754 130.083C853.913 131.259 857.442 131.847 861.341 131.847C865.407 131.847 868.97 131.242 872.028 130.032C875.12 128.789 877.54 127.075 879.288 124.89C881.035 122.672 881.926 120.084 881.96 117.126C881.926 114.438 881.136 112.22 879.59 110.472C878.044 108.691 875.876 107.212 873.087 106.035C870.331 104.826 867.104 103.75 863.407 102.809L851.661 99.7841C843.158 97.5995 836.436 94.289 831.496 89.8526C826.589 85.3826 824.135 79.4506 824.135 72.0566C824.135 65.9733 825.782 60.6463 829.076 56.0754C832.403 51.5046 836.923 47.9588 842.637 45.4381C848.351 42.8838 854.82 41.6067 862.046 41.6067C869.373 41.6067 875.792 42.8838 881.304 45.4381C886.85 47.9588 891.202 51.4709 894.362 55.9746C897.521 60.4446 899.151 65.5868 899.252 71.4012H881.254ZM946.815 146.266H911.827V43.0182H947.52C957.771 43.0182 966.577 45.0852 973.937 49.2191C981.331 53.3195 987.011 59.2179 990.977 66.9144C994.943 74.6109 996.926 83.8198 996.926 94.5411C996.926 105.296 994.926 114.539 990.927 122.269C986.961 129.999 981.23 135.931 973.736 140.065C966.274 144.199 957.301 146.266 946.815 146.266ZM930.531 130.083H945.907C953.1 130.083 959.099 128.772 963.905 126.151C968.711 123.495 972.324 119.546 974.744 114.303C977.164 109.027 978.374 102.439 978.374 94.5411C978.374 86.6429 977.164 80.0892 974.744 74.8797C972.324 69.6367 968.745 65.7212 964.006 63.1333C959.3 60.5118 953.452 59.2011 946.462 59.2011H930.531V130.083ZM1009.19 146.266V43.0182H1027.89V90.4576H1029.15L1069.43 43.0182H1092.27L1052.34 89.3485L1092.62 146.266H1070.14L1039.33 102.002L1027.89 115.513V146.266H1009.19Z" fill="black"></path>
</svg>
